<svg height="227" viewBox="0 0 286 227" width="286" xmlns="http://www.w3.org/2000/svg"><path d="m86.8300195 33.3251851c1.449808-3.8001968 6.4163944-8.0399809 10.9197107-8.0399809.144.0013333.2866667.0053333.428.0133333 5.6013328.356 7.6719998 3.4146666 9.6759998 6.3719999.978667 1.4439999 1.985333 2.9306666 3.425333 4.1813332 1.981333-3.7946666 5.352-5.9519999 9.361333-5.9519999.96 0 1.936.124 2.902667.3706667 5.192 1.3253333 8.210666 6.8373332 10.634666 11.2653331 1.018667 1.8586666 1.996 3.6439999 2.96 4.7626665-.065333-3.5279999 1.088-7.3413331 3.068-9.9079998 1.424-1.8466666 3.168-2.9453332 5.046667-3.1773332l.345333-.0426667.233333.26c6.101334 6.8079999 10.22 15.161333 14.201333 23.2386661 2.301334 4.6653332 4.674667 9.4826664 7.405333 13.9386663.697334-.3946666 1.674667-.6133333 2.809334-.6133333.745333 0 1.649333.108 2.5.3666667-2.978667-6.5373332-3.66-17.3746663-.022667-24.3159994 2.169333-4.1426666 5.6-6.4173332 9.921333-6.5799999.226667-.008.450667-.0133333.673333-.0133333 7.770667.0013333 12.554667 4.9826665 17.182667 9.7999998.964 1.0053333 1.894666 1.9719999 2.834666 2.8773332-.001333-1.3093333.405334-2.5506666 1.209334-3.6559999 1.468-2.0213333 4.163999-3.3799999 6.866666-3.4626666l.430667-.012.188.3853334c1.821333 3.7199999 3.608 7.7893331 5.336 11.7226663 4.398666 10.0133331 8.922666 20.3146662 15.021333 27.6079993-3.628-8.1479998-7.856-23.4279994-4.085334-30.9559992 1.502667-3.0026666 4.086667-4.5239999 7.676-4.5239999.278667 0 .564.008.858667.028 5.746666.3666667 8.508 4.3519999 10.945333 7.8679998 1.244 1.7973333 2.429333 3.5066666 3.877333 4.4946666 2.017333-5.7879999 7.394667-7.8759998 11.897333-7.8759998 1.744 0 3.525333.2973333 5.154667.8613333 4.355999 1.508 7.307999 6.8053332 10.162666 11.929333.332.596.661333 1.188.989333 1.7653333.56.988 1.172 1.9893333 1.784 2.9919999 2.968 4.8573333 6.034667 9.8799998 3.461334 13.797333l-.364.5506667-.554667-.3573333c-2.482667-1.596-3.936-4.6706666-5.474667-7.9253332-2.324-4.9146665-4.725333-9.9933331-10.879999-11.401333-3.209334 4.7293332-1.181334 10.445333.613333 15.5013329.316.892.621333 1.7546666.885333 2.5786666l.817334 2.5626666c1.632 5.1439999 3.318666 10.4573331 5.422666 14.7479997 4.369333.449333 7.288 1.656 8.92 3.684 1.234667 1.533333 1.705333 3.538666 1.402667 5.961333l-.025334.201333-.133333.153334c-.401333.464-1.009333.698666-1.806667.698666-.757333 0-1.626666-.204-2.468-.4-.766666-.18-1.558666-.366666-2.162666-.366666-.213334 0-.372.024-.489334.058666 1.957334 3.881334 2.946667 9.492 1.008 12.770667-1.1 1.86-3.048 2.842666-5.633333 2.842666-.546667 0-1.132-.044-1.74-.129333l-.22-.030667-.158666-.157333c-2.268-2.258667-3.169334-5.446667-4.044-8.528-1.546667-5.46-3.009334-10.62-11.794667-10.668l-.642666-.002666-.02-.642667c-.184-5.686666 2.698666-7.3759997 6.055999-8.1319996-1.4-3.0866666-2.522666-6.3613332-3.611999-9.5373331-1.217334-3.5506666-2.476-7.2213332-4.110667-10.5933331-.284-.5853333-.566667-1.1813333-.853333-1.7813333-2.682667-5.6333332-5.708-11.9866664-11.725333-15.025333-.765334 6.9933332 1.532 13.1746664 3.958666 19.7039996 1.970667 5.3013332 4.009333 10.7839997 4.346667 16.8466662l.022666.388-.328.2106667c-2.276 1.4559996-4.509333 2.1946666-6.638666 2.1946666-6.393333 0-10.736-6.3466665-14.566666-11.9453331-.777334-1.1359999-1.532-2.2386666-2.268-3.2293332.090666.364.184.7253333.274666 1.0813333.682667 2.6453333 1.388 5.3813332.717334 9.0879998l-.049334.2626666-.214666.1573333c-1.822667 1.3293333-3.453334 1.976-4.986667 1.976-4.884 0-7.098666-6.4693332-9.241333-12.725333l-.172-.5053333c-.612-1.7853333-1.212-3.6106666-1.812-5.4426666-2.632-8.0399998-5.356-16.3533329-9.449333-21.6186661-2.56-3.2906666-7.594667-8.8119998-12.545333-8.8119998-.418667 0-.833333.04-1.234667.12-1.750666.3493333-2.788 1.8573333-3.346666 3.0613333-1.477334 3.1693332-1.325334 7.7466665.334666 11.0306664 9.785333.9386666 21.037333 10.873333 22.877333 20.2933328.984 5.0466665-1.022666 9.0826664-5.652 11.3666664l-.264.1306666-.273333-.1066666c-2.333333-.908-4.5-1.5373333-6.596-2.1453333-4.294666-1.2466666-8.002666-2.3226666-11.218666-5.2813332-1.454667-1.3386666-2.570667-3.2933333-3.650667-5.1826665-1.866666-3.2693333-3.629333-6.3573332-6.909333-6.3573332-.744 0-1.562667.1586666-2.438667.4733333-.121333 2.3119999 1.136 4.7359999 2.464 7.2946665 1.597334 3.0773332 3.406667 6.5653332 3.189334 10.5893331l-.024.4359999-.408.1533334c-1.142667.424-2.232.64-3.242667.64-5.214667 0-7.54-5.5706666-9.409333-10.0466665-.634667-1.5213332-1.233333-2.9586665-1.878667-4.0426665l-.132-.2226667.053334-.2546666c.108-.5133334.182666-1.0693333.261333-1.6253333.205333-1.4866667.417333-3.0173333 1.221333-3.9173333-1.046666-2.1573332-2.398666-4.4039999-3.824-6.7719998-1.098666-1.8266666-2.236-3.7159999-3.217333-5.5586665-.766667-1.444-1.436-2.9333333-2.082666-4.3733333-1.048-2.3359999-2.049334-4.5706665-3.302667-6.1906665.138667 3.7359999.624 7.2759999 1.096 10.7133331.830667 6.0586665 1.689333 12.3239997.709333 19.8186662l-.048.3693333-.341333.152c-1.957333.8733333-3.621333 1.2986666-5.089333 1.2986666-6.662667 0-7.02-8.7479998-7.336-16.4666662-.152-3.7226666-.296-7.2373332-1.032-9.8093331-.244-.8493333-.929333-1.8573333-1.592-2.8306666-.446667-.656-.868-1.2746666-1.172-1.8653333l-.649333-1.2693333c-2.388-4.6973332-5.078667-9.9879997-9.630667-11.657333-.336 8.7906664 2.54 17.2573329 5.850667 27.0133326.386666 1.1373333 2.06 6.1026665 2.06 6.1026665 1.225333 3.6293333 2.613333 7.7413332 3.921333 11.9519997.254667.8173333.537333 1.6746667.828 2.5573333 1.813333 5.4999999 3.869333 11.7333334 1.381333 15.3226664-1.165333 1.68-3.226666 2.590666-6.126666 2.705333l-.352.014667-.210667-.284c-3.694667-4.994667-5.44-11.4239999-7.128-17.6399997-1.192-4.3906666-2.42-8.9159998-4.328-12.8639997-.806666 1.4879999-2.044 2.3586666-3.164 3.1479999-.625333.4386667-1.214666.8533333-1.736 1.3573333l-.236.228-.324-.048c-6.641555-.978072-13.312449-5.1686696-18.7560292-11.5924392l-.6137032-.1764938c-1.2066666-.348-2.7373333-1.1533333-4.5079999-2.0853333-2.4426666-1.2853333-5.4106665-2.8466666-8.4093331-3.6279999 5.5666665 13.4306663 12.489333 25.6093327 19.1626664 36.7919994l.428.718666-.794667.257334c-4.0719998 1.321333-8.0679997 1.992-11.8773329 1.992-19.9306662 0-32.4213325-17.94-42.4573323-32.3546663-2.3759999-3.4106666-4.6253332-6.6399998-6.8013332-9.3866664-5.5159998 1.2493333-11.805333 1.9106666-18.2213328 1.9106666-17.97866625 0-33.3066659-4.9733332-40.999999-13.3026663-4.4493332-4.8173332-6.4359998-10.6759998-5.8999999-17.4119996.96-12.1039997 10.0213331-19.9239995 23.08266613-19.9239995 2.7026666 0 5.46666653.3493333 8.21333313 1.0386666 13.97199964 3.5093333 23.25066604 15.6426663 30.70533254 25.3933327 2.8946666 3.7866666 5.6346666 7.3693332 8.3106665 10.0359998 1.7266666-.2866667 3.7133332-.4146667 6.3719998-.4146667 1.1493333 0 2.3146666.0226667 3.4786666.0453334 1.1573333.0226666 2.3133333.0453333 3.4533333.0453333 1.4653332 0 2.6893332-.0386667 3.7813332-.12-1.9293333-6.3279998-2.7679999-17.1079996 1.212-23.0213328 1.6973333-2.5199999 4.0733332-3.8839999 7.0639998-4.0559998.284-.016.564-.024.84-.024h.0026666c7.43389.0010191 11.8700185 5.7685223 15.046022 11.7049141zm-1.2627399 5.3177994c-.2643372-.2417921-.5246202-.4863491-.7832824-.7293806-1.9799999-1.8613333-3.8506666-3.6186666-6.8399998-3.6186666-.6093333 0-1.26.0746667-1.9373333.2213333-2.8586666 6.0106665-.256 12.2653331 2.0733333 16.5599996 4.2725029.8274848 7.495464 2.3966508 10.0160633 4.4291341-2.2429986-5.8377611-3.1279092-11.7194545-2.5287811-16.8624198zm17.5713834 137.0936825.362667.544c4.802667-2.405333 5.141333-6.345333 4.553333-9.274666-1.477333-7.352-10.5999994-16.365333-20.0506659-17.228 4.0426666 9.36 9.6786664 17.793333 15.1346659 25.958666zm-14.4293326-38.125332c-2.4333332 0-5.2679998-.822667-7.2599998-2.045334.3626667 2.342667 2.0813333 6.621334 3.8253333 7.482667 1.2186666.602667 3.7186665.882667 5.0239998.882667.108 0 .2013334-.001334.2733334-.006667 3.5199999-.233333 5.2973332-3.145333 6.1679998-5.545333 2.4173333-6.666667.7386667-17.076-3.3893332-21.014666-1.5653333-1.493334-4.6506666-3.004-7.5186665-3.004-1.9213333 0-4.4106666.692-5.3546666 3.985333-.6706666 2.342666-.2546666 4.694666 1.2053333 6.801333 2.3746667 3.428 7.2893332 5.916 12.5199997 6.336l.612.049333.0013334.613334c.0053333 1.613333-.4666667 2.906666-1.404 3.846666-1.0546667 1.058667-2.6813333 1.618667-4.7026666 1.618667zm-44.7399988 6.632c1.8999999 0 3.8613332-.6 5.8319998-1.784 1.9733333-5.154667 1.968-10.089333-.0173333-14.284-1.9653333-4.157333-5.7946665-7.334667-10.7813331-8.946666l-.9533333-.309334.6533333-.76c1.0426667-1.212 2.4586666-1.826666 4.2106666-1.826666 2.2999999 0 4.6906665 1.04 6.4359998 1.798666l.2186667.094667c7.6759998 3.324 14.721333 12.392 12.357333 24.558666 12.913333 3.485333 12.949333 16.217333 11.9506664 27.915999l-.092 1.085334-.924-.576c-2.7639999-1.724-5.3666665-5.974667-7.8839998-10.085334l-.0733333-.12c-.6506667-1.062666-1.2253333-2.285333-1.7813333-3.466666-1.4653333-3.114667-2.8493333-6.056-5.3493332-6.204-2.1266666.125333-2.4146666 2.48-2.5266666 4.88l-.0253334.478667c-.1693333 2.845333 1.136 5.766666 3.8826666 8.681333 6.8706665 7.293333 21.9786661 13.226666 33.6759992 13.226666h.0453333c-5.6079999-6.738666-13.2879997-16.689333-18.9026662-28.450666-.9666666-2.025333-1.9186666-4.072-2.8693333-6.113333-4.1079998-8.826667-8.3559997-17.952-13.5879996-24.785333-3.1679999-4.14-9.0666665-11.846666-16.9733329-12.084l-.4253333-.006666c-10.0719998.001333-10.8546664 10.822666-10.8546664 14.138666.0013333 10.830667 6.3133331 22.944 14.7586663 22.944zm-4.2386666-45.5759993c12.241333 0 25.518666 11.0639993 31.7413325 20.1439993-.0893333-2.836.7626667-5.581333 2.5106666-7.96 2.6973333-3.669333 7.2533332-6.083999 11.6093331-6.151999l.3866666-.002667c13.6146664 0 22.8999992 10.744 25.7666662 20.725333 2.64 9.197333.174667 17.705333-6.436 22.574666 5.629333 1.877333 10.712 6.605333 13.202666 12.391999 2.382667 5.538667 2.096 11.397334-.808 16.497333-1.053333 1.849334-2.652 2.825334-4.197333 3.770667-1.189333.726667-2.32 1.418667-3.132 2.472 2.048 1.636 5.069333 2.274667 7.757333 2.842667 1.132.238666 2.201334.463999 3.165334.750666l.965333.288-.642667.777333c-1.757333 2.124-3.784 3.157334-6.194666 3.157334-2.881333 0-5.806667-1.452-8.904-2.990667-2.245333-1.114667-4.566667-2.268-6.8133332-2.78-.7626666-.173333-1.6226666-.254666-2.7053332-.254666-.8706667 0-1.7586667.052-2.632.104-.8733333.050666-1.7346666.101333-2.5546666.101333-.488 0-.9639999-.018667-1.4199999-.062667-25.4159994-2.501333-41.3973323-14.599999-42.911999-32.418666-.204.005334-.4053333.008-.6079999.008-9.8639998 0-18.4773329-6.441333-23.0413328-17.227999-4.9146665-11.616-3.5013332-24.278666 3.5173332-31.511999 3.376-3.48 7.5399999-5.2440003 12.3786664-5.2440003zm137.87093 67.8335983c.52.148 1.005333.222667 1.442667.222667.4 0 .773333-.06 1.131999-.185334-.406666-7.309333-4.389333-12.627999-12.470666-16.619999 2.182667 5.932 5.429333 11.371999 9.896 16.582666zm-36.633333-6.138667c.521334.148 1.005334.222667 1.442667.222667.4 0 .773333-.061333 1.132-.186667-.404-7.310666-4.386666-12.629333-12.468-16.617332 2.185334 5.931999 5.432 11.371999 9.893333 16.581332zm-12.002666-47.531998c2.585333 0 5.264.656 7.961333 1.949333 5.08 2.436 8.993333 7.549333 12.138667 11.657333 1.2 1.568 2.273333 2.969333 3.273333 4.064 2.365333-9.305333 7.765333-11.304 11.964-11.304 8.101333.001334 17.715999 7.357333 22.651999 14.277333 3.377333 4.74 5.808 10.616 8.158666 16.298666 1.574667 3.809334 3.064 7.406667 4.777334 10.556.408.753333.712 1.585333 1.005333 2.389333.725333 1.996 1.233333 3.218667 2.489333 3.218667.605334 0 1.389334-.272 2.334667-.808-.536-2.654667-1.961333-5.674666-3.465333-8.864-3.032-6.432-6.469334-13.721333-4.394667-21.277333 1.394667-5.079999 5.348-8.235999 10.317333-8.235999 1.294667 0 2.650667.210666 4.028.622666 4.452 1.336 9.425333 8.786667 11.994666 13.108 3.465334 5.833333 6.417334 11.54 4.506667 17.232l-.336 1.005333-.76-.74c-2.505333-2.434667-3.994667-5.590667-5.433333-8.644-2.114667-4.481333-4.116-8.726666-9.093333-10.890666-1.389334 7.925333 2.574666 19.278666 6.982666 26.691999.756 1.269333 1.689333 2.281333 2.593333 3.258667 1.497334 1.621333 2.910667 3.150666 2.656 5.270666-.329333 2.748-3.050666 4.510667-5.452 6.065333-.325333.212-1.171999.770667-1.171999.770667l-.26-.042667c-2.66-.444-4.912-1.197333-7.088-1.926666-1.818667-.608-3.696-1.237334-5.790667-1.670667-.253333.345333-.229333 1.288-.209333 2.064.030667 1.258667.062667 2.561333-.714667 3.357333-.394666.406667-.941333.612-1.621333.612-.281333 0-.593333-.034666-.950667-.110666-5.554666-1.370667-5.969333-5.410667-6.449333-10.088-.128-1.238667-.258667-2.52-.490667-3.836-.668-3.762667-1.969333-7.804-3.137333-11.298666-4.617333-13.792-10.332-27.34-24.730666-28.437333-3.230666 2.714667-3.228 9.412-2.176 13.478666 10.890667.885334 21.673333 11.653333 23.448 20.202666 1.064 5.121334-.926667 9.232-5.605334 11.573333l-.258666.129334-.270667-.101334c-2.266667-.84-4.354666-1.466666-6.372-2.073333-4.485333-1.345333-8.358666-2.509333-11.458666-5.358666-5.172-4.76-7.949333-12.148-10.634667-19.292-1.514666-4.029333-2.946666-7.834666-4.727999-10.941333-1.877334-3.273333-8.646667-13.956-16.884-13.956-.541333 0-1.084.048-1.617333.142667-3.308 2.678667-3.309334 9.441333-2.245334 13.534666 10.890667.884 21.670667 11.653333 23.446667 20.201333 1.064 5.122667-.928 9.234667-5.608 11.576l-.277334.138667-.286666-.124c-1.882667-.817334-3.896-1.370667-6.026667-1.957334-4.092-1.126666-8.321333-2.290666-11.768-5.461333-6.815999-6.270666-13.549333-23.581333-12.865333-33.075999.654667-9.070666 6.113334-14.930666 13.904-14.930666zm-75.8562647-51.6033324-.1106666.0226667-.1106667-.016c-.0866667-.0106667-.1653333-.0173333-.236-.0173333h-.0213333c.124.6293333 1.2839999 2.1799999 1.7426666 2.7919999.2346667.3133333.436.584.5653333.7773333 2.7919999 4.2079999 6.9253332 10.0066664 10.5306664 14.773333 4.9746666 6.5799998 10.5173331 13.1359996 18.7706662 15.2053329-1.4106666-2.7573332-2.8426666-5.4999998-4.2733332-8.2426664-4.2079999-8.0639998-8.5573331-16.3999996-12.3106664-24.9919994-3.0519999-.5733333-5.9319998-.8626667-8.5639998-.8626667-2.1213332 0-4.1333332.188-5.9826665.56zm-32.0999992-9.8133331c3.8386666 0 7.9626665-.18 11.9613331-.5213333.2253333-1.6639999-1.7346667-4.2146665-3.4786666-6.4839998l-.324-.4213333c-5.4919999-7.1639999-14.685333-19.1559996-24.83333272-22.0333328-1.76933329-.5026667-3.57999991-.7573333-5.3813332-.7573333h-.00133333c-5.90399985 0-11.28933305 2.7866666-13.71999965 7.0986665-2.024 3.5919999-1.776 7.8213331.6986666 11.909333 5.60533324 9.2639998 22.16933282 11.209333 35.0786658 11.209333zm175.0297289 35.9382658c.518667.148 1.002667.2226667 1.441333.2226667.4 0 .774667-.06 1.133334-.1853334-.405334-7.3079998-4.388-12.6279996-12.465333-16.6213329 2.184 5.9359999 5.430666 11.3773331 9.890666 16.5839996zm-83.010665-13.9426663c5.26-5.0226666 1.878667-12.9346664-.598666-18.7333329-.213333-.5-.418667-.9786666-.608-1.4346666-.249333-.5986667-.5-1.22-.757333-1.856-2.22-5.4839998-4.969334-12.273333-10.084-14.0679996-4.7733334 7.2159998-.589334 18.3653329 3.010666 26.1813327.409334.8879999.757334 1.7386666 1.088 2.5453332 1.577334 3.8533333 2.630667 6.4239999 7.949333 7.3653332z" fill-rule="evenodd" transform="matrix(.95630476 -.2923717 -.2923717 -.95630476 35.477456 237.3852)"/></svg>